<svg width="50" height="54" viewBox="0 0 50 54" fill="none" xmlns="http://www.w3.org/2000/svg">
<path d="M0.5 5.5H49.5V53.5H0.5V5.5Z" fill="white" stroke="#DFDDE3"/>
<path d="M1 6H49V19H1V6Z" fill="#117C7B"/>
<path d="M9.55713 23.3164H15.8334V28.8954H9.55713V23.3164Z" fill="#DFDDE3"/>
<path d="M22.1099 23.3164H28.3862V28.8954H22.1099V23.3164Z" fill="#DFDDE3"/>
<path d="M34.6626 23.3164H40.9389V28.8954H34.6626V23.3164Z" fill="#DFDDE3"/>
<path d="M9.55713 32.3828H15.8334V37.9618H9.55713V32.3828Z" fill="#DFDDE3"/>
<path d="M22.1099 32.3828H28.3862V37.9618H22.1099V32.3828Z" fill="#DFDDE3"/>
<path d="M34.6626 32.3828H40.9389V37.9618H34.6626V32.3828Z" fill="#DFDDE3"/>
<path d="M9.55713 41.4473H15.8334V47.0262H9.55713V41.4473Z" fill="#DFDDE3"/>
<path d="M22.1099 41.4473H28.3862V47.0262H22.1099V41.4473Z" fill="#DFDDE3"/>
<path d="M34.6626 41.4473H40.9389V47.0262H34.6626V41.4473Z" fill="#DFDDE3"/>
<path d="M14 0.5H13.5V1V11V11.5H14H17H17.5V11V1V0.5H17H14Z" fill="#0C3137" stroke="#F1F5FE"/>
<path d="M35 0.5H34.5V1V11V11.5H35H38H38.5V11V1V0.5H38H35Z" fill="#0C3137" stroke="#F1F5FE"/>
<path d="M1 17H49V19H1V17Z" fill="#63B857"/>
</svg>
