<svg width="25" height="23" viewBox="0 0 25 23" fill="none" xmlns="http://www.w3.org/2000/svg">
<path d="M10.939 0.959961L12.0445 1.69667C12.0445 1.69667 10.9933 3.55823 10.9933 6.36642C10.9933 9.17462 9.21633 11.0045 7.02227 11.0045C4.8282 11.0045 3.05464 8.86568 3.05464 6.36246C3.05464 3.85925 2 1.69667 2 1.69667L3.13603 0.959961" stroke="white" stroke-width="2" stroke-miterlimit="10"/>
<path d="M21.0057 15.9199V15.0469C21.0057 12.7227 19.1051 10.835 16.7564 10.835C14.4115 10.835 12.5071 12.7188 12.5071 15.0469V17.7425C12.5071 19.1822 11.3289 20.3501 9.87636 20.3501C8.25776 20.3501 6.94434 19.0482 6.94434 17.4438V10.835" stroke="white" stroke-width="2" stroke-miterlimit="10"/>
<path d="M20.9198 22.0799C22.6209 22.0799 23.9998 20.701 23.9998 18.9999C23.9998 17.2989 22.6209 15.9199 20.9198 15.9199C19.2188 15.9199 17.8398 17.2989 17.8398 18.9999C17.8398 20.701 19.2188 22.0799 20.9198 22.0799Z" stroke="white" stroke-width="1.5" stroke-miterlimit="10"/>
<path d="M20.9196 20.3197C21.6486 20.3197 22.2396 19.7287 22.2396 18.9997C22.2396 18.2707 21.6486 17.6797 20.9196 17.6797C20.1906 17.6797 19.5996 18.2707 19.5996 18.9997C19.5996 19.7287 20.1906 20.3197 20.9196 20.3197Z" fill="white"/>
</svg>
