<svg width="21" height="18" viewBox="0 0 21 18" fill="none" xmlns="http://www.w3.org/2000/svg">
<path d="M10.0191 3.34298C10.4971 2.35827 11.0784 1.57071 11.8889 0.979251C14.5929 -0.996469 18.3541 0.237831 19.5879 3.52546C20.4727 5.88185 19.9503 8.09038 18.7764 10.1856C17.2773 12.8608 15.0358 14.8061 12.5734 16.5134C11.8507 17.0136 11.0918 17.4614 10.335 17.9061C10.1864 17.9931 9.92102 18.0371 9.7868 17.9606C6.71627 16.2124 3.91521 14.1266 1.8503 11.1704C0.682587 9.49876 -0.0329061 7.66251 0.00116503 5.56829C0.0445283 2.9686 1.86991 0.656256 4.3571 0.0983565C6.28057 -0.333701 8.44151 0.687717 9.5865 2.5722C9.72072 2.79243 9.83945 3.02209 10.0191 3.34298Z" fill="#4F4F4F"/>
<rect x="6.09766" y="9.98584" width="1.77452" height="8.08392" transform="rotate(-90 6.09766 9.98584)" fill="white"/>
<rect x="9" y="5.22583" width="2.03226" height="7.54839" fill="white"/>
</svg>
