<svg width="13" height="12" viewBox="0 0 13 12" fill="none" xmlns="http://www.w3.org/2000/svg">
<path d="M12.1203 6.02618L6.41983 0.0853713C6.30623 -0.0330144 6.11002 -0.0330144 5.99642 0.0853713L0.306231 6.02618C0.110018 6.2199 0.244269 6.56429 0.512772 6.56429H1.20468C1.36991 6.56429 1.50417 6.7042 1.50417 6.8764V11.6979C1.50417 11.8701 1.63842 12.01 1.80365 12.01H4.60227C4.76751 12.01 4.90176 11.8701 4.90176 11.6979V8.21093C4.90176 8.03873 5.03601 7.89882 5.20124 7.89882H7.1737C7.33893 7.89882 7.47319 8.03873 7.47319 8.21093V11.6979C7.47319 11.8701 7.60744 12.01 7.77267 12.01H10.5713C10.7365 12.01 10.8708 11.8701 10.8708 11.6979V6.86564C10.8708 6.69344 11.005 6.55353 11.1703 6.55353H11.9138C12.172 6.56429 12.3062 6.2199 12.1203 6.02618Z" fill="#4A4A4A"/>
</svg>
