<svg width="15" height="15" viewBox="0 0 15 15" xmlns="http://www.w3.org/2000/svg">
<path d="M11.9794 9.04447C13.4287 6.57824 12.6386 3.42432 10.2148 2" stroke="#4A4A4A"/>
<path d="M9.83613 8.16291C10.6871 6.71478 10.203 4.85098 8.75488 4" stroke="#4A4A4A"/>
<path d="M5.6126 1.26307C5.48459 0.902451 5.19034 0.718014 4.80724 0.764248C4.71625 0.776091 4.62683 0.793784 4.52726 0.820463C4.40426 0.85342 4.28283 0.892226 4.16569 0.923614C3.93883 0.990669 3.70612 1.05929 3.48042 1.10723C3.09072 1.19912 2.78705 1.42466 2.55342 1.79442C2.28976 2.21611 2.12417 2.69927 2.02392 3.30911C1.9089 4.0044 1.86252 4.581 1.88056 5.14033C1.893 5.53819 1.92499 5.96214 1.98247 6.50465C2.02106 6.88296 2.07797 7.21248 2.14346 7.52716C2.22618 7.90619 2.33976 8.28321 2.44278 8.64425L2.45845 8.70274C2.51603 8.89418 2.58259 9.09574 2.67926 9.33938L2.72232 9.45322C2.83895 9.74793 2.95715 10.0485 3.09293 10.3443C3.24082 10.662 3.40159 10.9575 3.57366 11.2248L3.58578 11.2466C3.88183 11.7189 4.1943 12.2056 4.58521 12.6337C4.94759 13.0255 5.28019 13.3063 5.62913 13.5074C5.99291 13.7171 6.38508 13.775 6.78493 13.6741C6.82007 13.6647 6.85521 13.6553 6.89621 13.6443C7.06021 13.6004 7.21678 13.5521 7.37335 13.5039C7.45964 13.4745 7.5475 13.451 7.63379 13.4216C7.67479 13.4106 7.70993 13.4012 7.74936 13.3844C7.84736 13.3518 7.93522 13.3283 8.02893 13.3032C8.44792 13.2034 8.67297 12.8485 8.57812 12.4477C8.51502 12.1888 8.44607 11.9314 8.37868 11.6799C8.37241 11.6565 8.36771 11.639 8.36144 11.6156L8.37316 11.6125L8.03465 10.3491C7.96883 10.1035 7.8484 9.93518 7.6835 9.83519C7.51274 9.73677 7.30222 9.72422 7.0578 9.79599C6.73137 9.88972 6.39595 9.97333 6.07381 10.0596L5.82196 10.1271C5.68139 10.1648 5.58685 10.14 5.49694 10.0387C5.49537 10.0328 5.48325 10.011 5.47269 9.99504C5.459 9.96737 5.44374 9.93385 5.42262 9.9019L5.35613 9.79434C5.20518 9.55897 5.06322 9.33373 4.95327 9.08737C4.7181 8.56114 4.5396 8.08241 4.41423 7.61452C4.27006 7.07645 4.12423 6.43852 4.10454 5.77932C4.09919 5.45479 4.0978 5.19189 4.11753 4.96093C4.13494 4.76821 4.19772 4.65109 4.48043 4.58161C4.82913 4.50071 5.20398 4.40027 5.68269 4.26573C6.0384 4.16415 6.24671 3.86386 6.21009 3.51637C6.20143 3.43719 6.18106 3.36116 6.16382 3.29683L6.08703 3.01024C5.98789 2.61681 5.87976 2.21326 5.77905 1.81398C5.73558 1.67518 5.68073 1.47048 5.6126 1.26307Z" />
</svg>
