<svg width="181" height="40" viewBox="0 0 181 40" fill="none" xmlns="http://www.w3.org/2000/svg">
<g clip-path="url(#clip0)">
<path d="M38.1852 24.1907C36.2073 31.4991 31.9337 37.7938 23.8869 39.5269C12.8217 41.9058 2.11389 35.1452 0.263064 23.6021C-1.50833 12.6068 5.99825 1.99575 16.7537 0.295365C27.6283 -1.42137 36.8189 4.35831 38.5506 17.2992C38.5506 17.2992 38.9001 20.4875 38.1852 24.1907ZM19.0414 29.856C19.105 29.8805 19.1765 29.8968 19.24 29.9214C18.676 32.4556 18.1359 34.9898 17.5322 37.5159C17.3812 38.1617 17.5719 38.3906 18.1438 38.3743C19.248 38.3334 20.36 38.3252 21.4642 38.1944C31.6716 36.9763 39.4164 26.6514 36.7236 15.2473C34.4756 5.7644 25.6583 0.197265 16.1341 2.1102C5.15624 4.32561 -1.32563 16.9804 3.083 27.5506C3.36896 28.2292 3.67876 28.3926 4.38573 28.2128C9.47749 26.9375 13.5763 24.0518 17 20.0624C17.9849 18.9097 18.8746 17.6753 19.8517 16.4245C18.8508 23.97 15.6416 30.4446 11.1536 36.4368C11.7652 36.7311 12.1544 36.9436 12.5596 37.1153C13.9099 37.6794 13.9338 37.6876 14.7678 36.4204C16.1977 34.2541 17.6116 32.0469 19.0414 29.856Z" fill="#7FA851"/>
<path fill-rule="evenodd" clip-rule="evenodd" d="M88.5777 21.7939C88.6174 22.5051 88.3156 23.1918 87.7833 23.6415C87.1161 24.132 86.3138 24.369 85.4956 24.32C84.6695 24.3363 83.8593 24.1565 83.1126 23.7968V22.0882C83.5812 22.3171 84.0658 22.497 84.5583 22.6441C84.9078 22.7422 85.2653 22.7994 85.6307 22.7994C85.9484 22.824 86.2661 22.7422 86.5362 22.5705C86.7427 22.407 86.8619 22.1536 86.8539 21.8838C86.846 21.7367 86.7984 21.5896 86.711 21.4751C86.5998 21.3198 86.4647 21.1972 86.3059 21.0909C85.9563 20.8702 85.5909 20.674 85.2176 20.5023C84.8045 20.3143 84.4074 20.0772 84.0578 19.7829C83.8037 19.554 83.5892 19.276 83.4383 18.9654C83.2794 18.6384 83.2 18.2705 83.2079 17.9027C83.1841 17.2078 83.478 16.5374 84.0022 16.096C84.598 15.6218 85.3367 15.3848 86.0914 15.4338C86.5124 15.4338 86.9334 15.491 87.3464 15.5973C87.7754 15.7118 88.1885 15.8671 88.5936 16.0469L88.0137 17.4776C87.6562 17.3141 87.2829 17.1833 86.9016 17.077C86.6156 17.0034 86.3297 16.9625 86.0358 16.9625C85.7498 16.938 85.4638 17.0279 85.2414 17.2078C85.0667 17.3713 84.9634 17.6002 84.9713 17.8454C84.9713 17.9926 85.0111 18.1397 85.0826 18.2624C85.1779 18.4013 85.297 18.5239 85.4321 18.6139C85.7975 18.8428 86.1708 19.0471 86.56 19.227C87.1637 19.4886 87.7118 19.8892 88.1487 20.3878C88.4347 20.7884 88.5856 21.2871 88.5777 21.7939ZM78.1002 20.6004L77.1788 17.4285C77.1073 17.1833 77.0596 16.9871 77.0279 16.8481C76.9008 17.3468 76.5354 18.6057 75.9396 20.6004H78.1002ZM79.1329 24.2055L78.5292 22.1373H75.4551L74.8434 24.2055H72.9211L75.892 15.4992H78.0764L81.0632 24.2055H79.1329ZM66.4948 20.8783V24.2055H64.7075V15.5319H67.1621C68.0517 15.4665 68.9414 15.6872 69.704 16.1777C70.5937 17.0198 70.7684 18.4013 70.117 19.4477C69.8231 19.8646 69.418 20.1916 68.9573 20.3878L71.4357 24.1647H69.4577L67.4401 20.8375L66.4948 20.8783ZM66.4948 19.3823H67.0668C67.5036 19.415 67.9405 19.3087 68.3218 19.088C68.5998 18.8755 68.7428 18.5321 68.719 18.1806C68.7508 17.8291 68.5919 17.4939 68.3139 17.2977C67.9167 17.1015 67.4719 17.0116 67.035 17.0443H66.4948V19.3823ZM61.4666 24.2055H56.6131V15.5319H61.4666V17.0443H58.4004V18.9409H61.2919V20.4532H58.4004V22.685H61.4666V24.2055ZM49.7818 19.3006H53.126V23.7968C52.1648 24.132 51.148 24.2955 50.1313 24.2873C49.043 24.3609 47.9786 23.9439 47.216 23.1346C46.4932 22.2027 46.1278 21.0337 46.1992 19.8401C46.1278 18.6302 46.5488 17.4449 47.359 16.5701C48.2407 15.7445 49.4084 15.3194 50.5999 15.3929C51.4578 15.3929 52.3078 15.5728 53.0942 15.9243L52.554 17.3876C51.9583 17.077 51.299 16.9135 50.6317 16.9135C49.9247 16.889 49.2495 17.1914 48.7809 17.731C48.2884 18.3277 48.0421 19.0962 48.0819 19.881C48.0104 20.6413 48.1851 21.4015 48.5823 22.0473C48.9636 22.546 49.5593 22.8158 50.171 22.7913C50.5523 22.7913 50.9336 22.7504 51.3069 22.6686V20.862H49.7182L49.7818 19.3006Z" fill="black"/>
<path fill-rule="evenodd" clip-rule="evenodd" d="M181 21.8838C181.031 22.5787 180.73 23.2409 180.205 23.666C179.562 24.1401 178.783 24.369 177.997 24.32C177.203 24.3608 176.416 24.23 175.678 23.9276V22.8648C176.059 23.0365 176.448 23.1591 176.853 23.2409C177.242 23.3308 177.64 23.3717 178.037 23.3798C178.537 23.4207 179.038 23.2899 179.459 23.0038C179.776 22.7667 179.959 22.3825 179.943 21.9819C179.951 21.7285 179.888 21.4833 179.768 21.2707C179.618 21.05 179.419 20.8701 179.189 20.7475C178.791 20.5268 178.386 20.3388 177.957 20.1916C177.33 19.9954 176.75 19.6439 176.289 19.1616C175.948 18.7283 175.765 18.1806 175.789 17.6247C175.765 16.987 176.035 16.3821 176.528 15.9897C177.091 15.5728 177.775 15.3602 178.474 15.3929C179.276 15.3848 180.07 15.5483 180.801 15.8834L180.444 16.8317C179.808 16.5456 179.125 16.3903 178.434 16.3739C178.021 16.3494 177.608 16.4638 177.258 16.7009C176.972 16.9216 176.813 17.2732 176.837 17.6329C176.829 17.8781 176.885 18.1234 176.996 18.3441C177.131 18.5566 177.314 18.7283 177.528 18.8509C177.894 19.0635 178.283 19.2433 178.68 19.3823C179.173 19.554 179.641 19.7829 180.078 20.069C180.674 20.4614 181.016 21.1563 180.976 21.8838H181ZM171.706 24.2055H170.467L165.963 17.0034H165.915V17.4857C165.963 18.2051 165.987 18.8264 165.987 19.3578V24.2055H165.009V15.5319H166.233L166.495 15.957L169.323 20.3551L170.792 22.7095H170.84C170.84 22.6114 170.84 22.2762 170.792 21.6876C170.745 21.099 170.792 20.6903 170.792 20.4287V15.5237H171.706V24.2055ZM154.341 19.8401C154.278 20.772 154.532 21.6958 155.056 22.4643C156.16 23.6333 157.987 23.6578 159.123 22.5215C159.139 22.5051 159.163 22.4806 159.179 22.4643C159.695 21.6958 159.942 20.7639 159.878 19.8319C159.942 18.9082 159.703 17.9844 159.187 17.2159C158.671 16.6028 157.908 16.2758 157.13 16.333C156.327 16.2758 155.541 16.6192 155.025 17.2486C154.508 18.0007 154.27 18.9163 154.341 19.8401ZM161.006 19.8401C161.069 21.0255 160.704 22.1863 159.981 23.1101C159.25 23.9276 158.202 24.369 157.122 24.3036C156.041 24.3772 154.977 23.9603 154.23 23.151C153.507 22.2272 153.142 21.0663 153.213 19.881C153.134 18.6874 153.499 17.5021 154.23 16.5701C154.977 15.7608 156.041 15.3357 157.122 15.4093C158.194 15.3357 159.242 15.7608 159.981 16.5701C160.704 17.4857 161.069 18.6547 161.006 19.8401ZM148.805 24.1892H145.762V23.5597L146.747 23.3226V16.4066L145.762 16.1614V15.5319H148.805V16.1614L147.812 16.4066V23.339L148.805 23.576V24.1892ZM138.582 24.1892H137.549V16.4965H134.92V15.5319H141.235V16.4965H138.613L138.582 24.1892ZM131.504 15.5156V21.1236C131.552 21.9901 131.234 22.8403 130.63 23.4534C129.971 24.0338 129.113 24.3281 128.247 24.2709C127.381 24.3445 126.515 24.0502 125.864 23.4534C125.284 22.824 124.974 21.9738 125.022 21.1072V15.5319H126.094V21.1563C125.967 22.2599 126.738 23.2572 127.81 23.388C127.969 23.4044 128.136 23.4044 128.295 23.3798C129.375 23.5025 130.344 22.6932 130.463 21.5814C130.479 21.4342 130.479 21.2871 130.463 21.1399V15.5319L131.504 15.5156ZM116.777 24.2055V15.5319H117.833V23.2327H121.511V24.2055H116.777ZM106.053 19.8401C105.989 20.772 106.244 21.6958 106.768 22.4643C107.872 23.6333 109.699 23.6578 110.835 22.5215C110.851 22.5051 110.875 22.4806 110.891 22.4643C111.407 21.6958 111.653 20.7639 111.59 19.8319C111.653 18.9082 111.415 17.9844 110.898 17.2159C110.382 16.6028 109.62 16.2758 108.841 16.333C108.055 16.284 107.284 16.611 106.768 17.2241C106.236 17.9844 105.981 18.9082 106.053 19.8401ZM112.718 19.8401C112.781 21.0255 112.416 22.1863 111.693 23.1101C110.962 23.9276 109.914 24.369 108.833 24.3036C107.753 24.369 106.704 23.9439 105.958 23.1346C105.243 22.2027 104.893 21.0255 104.981 19.8401C104.909 18.6629 105.267 17.4939 105.989 16.5701C106.736 15.7608 107.801 15.3357 108.881 15.4093C109.937 15.3521 110.962 15.7772 111.693 16.5701C112.416 17.4857 112.781 18.6547 112.718 19.8401ZM101.47 21.8838C101.493 22.5705 101.2 23.2327 100.675 23.666C100.032 24.1401 99.2454 24.369 98.459 24.32C97.6726 24.3608 96.8783 24.2219 96.1475 23.9112V22.8648C96.5208 23.0365 96.91 23.1591 97.3152 23.2409C97.7044 23.3308 98.1095 23.3717 98.5067 23.3798C99.0071 23.4207 99.5076 23.2817 99.9286 23.0038C100.238 22.7667 100.421 22.3825 100.405 21.9819C100.421 21.7285 100.358 21.4833 100.23 21.2707C100.087 21.05 99.8888 20.8701 99.6585 20.7475C99.2613 20.5268 98.8482 20.3388 98.4272 20.1916C97.7918 19.9954 97.2198 19.6439 96.7512 19.1616C96.4096 18.7283 96.2269 18.1806 96.2507 17.6247C96.219 16.987 96.5049 16.3739 96.9974 15.9897C97.5614 15.5728 98.2445 15.3602 98.9436 15.3929C99.7459 15.3848 100.532 15.5483 101.263 15.8834L100.937 16.8154C100.302 16.5292 99.6188 16.3739 98.9197 16.3576C98.5067 16.333 98.0936 16.4475 97.752 16.6846C97.4661 16.9053 97.3072 17.2486 97.3231 17.6165C97.3151 17.8618 97.3708 18.107 97.4899 18.3277C97.6249 18.5403 97.8076 18.712 98.0221 18.8346C98.3875 19.0471 98.7688 19.227 99.166 19.366C99.6585 19.5376 100.135 19.7665 100.572 20.0526C100.85 20.2488 101.088 20.5186 101.247 20.8293C101.398 21.1563 101.478 21.516 101.47 21.8838Z" fill="#99999A"/>
</g>
<defs>
<clipPath id="clip0">
<rect width="181" height="40" fill="white"/>
</clipPath>
</defs>
</svg>
